<svg width="20" height="20" viewBox="0 0 20 20" fill="none" xmlns="http://www.w3.org/2000/svg">
<path d="M10.0001 5.23499C7.33995 5.23499 5.19308 7.39288 5.19308 10.0667C5.19308 12.7405 7.33995 14.8984 10.0001 14.8984C12.6603 14.8984 14.8071 12.7405 14.8071 10.0667C14.8071 7.39288 12.6603 5.23499 10.0001 5.23499ZM10.0001 13.2069C8.2798 13.2069 6.87589 11.7958 6.87589 10.0667C6.87589 8.33754 8.2798 6.92643 10.0001 6.92643C11.7204 6.92643 13.1243 8.33754 13.1243 10.0667C13.1243 11.7958 11.7204 13.2069 10.0001 13.2069ZM15.004 3.91105C14.3829 3.91105 13.8814 4.41518 13.8814 5.03946C13.8814 5.66374 14.3829 6.16788 15.004 6.16788C15.6251 6.16788 16.1267 5.6661 16.1267 5.03946C16.1269 4.89122 16.0979 4.74441 16.0416 4.60742C15.9852 4.47043 15.9026 4.34596 15.7983 4.24114C15.694 4.13632 15.5701 4.05321 15.4339 3.99656C15.2976 3.93992 15.1515 3.91086 15.004 3.91105ZM19.3704 10.0667C19.3704 8.76629 19.3821 7.47768 19.3095 6.17965C19.2368 4.67196 18.8946 3.33388 17.7978 2.23138C16.6985 1.12653 15.3696 0.784943 13.8696 0.711914C12.5759 0.638885 11.2939 0.650664 10.0025 0.650664C8.7087 0.650664 7.42667 0.638885 6.13527 0.711914C4.63527 0.784943 3.30402 1.12889 2.20714 2.23138C1.10792 3.33624 0.76808 4.67196 0.695424 6.17965C0.622767 7.48004 0.634486 8.76864 0.634486 10.0667C0.634486 11.3647 0.622767 12.6557 0.695424 13.9537C0.76808 15.4614 1.11027 16.7995 2.20714 17.902C3.30636 19.0068 4.63527 19.3484 6.13527 19.4214C7.42902 19.4945 8.71105 19.4827 10.0025 19.4827C11.2962 19.4827 12.5782 19.4945 13.8696 19.4214C15.3696 19.3484 16.7009 19.0045 17.7978 17.902C18.897 16.7971 19.2368 15.4614 19.3095 13.9537C19.3845 12.6557 19.3704 11.3671 19.3704 10.0667ZM17.3079 15.6216C17.1368 16.0503 16.9306 16.3707 16.6001 16.7005C16.2696 17.0327 15.9532 17.24 15.5267 17.412C14.2939 17.9043 11.3665 17.7936 10.0001 17.7936C8.6337 17.7936 5.70402 17.9043 4.4712 17.4143C4.04464 17.2423 3.72589 17.035 3.39777 16.7029C3.0673 16.3707 2.86105 16.0527 2.68995 15.6239C2.20246 14.3824 2.31261 11.4401 2.31261 10.0667C2.31261 8.69326 2.20246 5.74855 2.68995 4.50941C2.86105 4.08066 3.0673 3.76028 3.39777 3.43047C3.72824 3.10066 4.04464 2.891 4.4712 2.71903C5.70402 2.22903 8.6337 2.33975 10.0001 2.33975C11.3665 2.33975 14.2962 2.22903 15.529 2.71903C15.9556 2.891 16.2743 3.09831 16.6025 3.43047C16.9329 3.76264 17.1392 4.08066 17.3103 4.50941C17.7978 5.74855 17.6876 8.69326 17.6876 10.0667C17.6876 11.4401 17.7978 14.3824 17.3079 15.6216Z" fill="white"/>
</svg>
