<svg width="20" height="17" viewBox="0 0 20 17" fill="none" xmlns="http://www.w3.org/2000/svg">
<path d="M19.9022 1.99588C19.1851 2.30684 18.4046 2.53064 17.6007 2.6178C18.4353 2.11941 19.0603 1.33202 19.3585 0.403379C18.5753 0.871681 17.7173 1.20006 16.8226 1.37396C16.4486 0.972124 15.9963 0.652007 15.4939 0.433551C14.9915 0.215095 14.4497 0.102981 13.9022 0.104197C11.6874 0.104197 9.90615 1.90872 9.90615 4.12314C9.90615 4.4341 9.94365 4.74506 10.0046 5.04425C6.68818 4.86992 3.73037 3.27742 1.76397 0.839197C1.40566 1.45432 1.2179 2.15472 1.22021 2.86751C1.22021 4.26213 1.92568 5.49184 3.00146 6.21506C2.36749 6.18997 1.74836 6.01482 1.19443 5.70386V5.75333C1.19443 7.70626 2.56787 9.32468 4.39834 9.69689C4.05465 9.78662 3.70109 9.83253 3.346 9.83353C3.08584 9.83353 2.83975 9.80761 2.59131 9.77228C3.09756 11.3648 4.57178 12.5215 6.32725 12.5592C4.95381 13.6404 3.2335 14.2765 1.36553 14.2765C1.03037 14.2765 0.720996 14.2647 0.399902 14.227C2.17178 15.3696 4.27412 16.0292 6.53818 16.0292C13.8882 16.0292 17.9101 9.90891 17.9101 4.59665C17.9101 4.42232 17.9101 4.248 17.8983 4.07367C18.6765 3.50122 19.3585 2.79213 19.9022 1.99588Z" fill="white"/>
</svg>
