<svg width="452" height="512" viewBox="0 0 452 512" fill="none" xmlns="http://www.w3.org/2000/svg">
<path d="M450.579 35.163L445.312 61.996C440.502 86.515 429.927 109.532 414.45 129.14L335.777 228.77C334.894 229.886 333.585 230.587 332.174 230.688L300.814 233.012C295.993 233.367 294.349 239.609 298.368 242.288L311.308 250.945C313.764 252.589 314.302 255.989 312.465 258.313L293.081 282.863C292.168 284.02 290.798 284.72 289.326 284.791C273.494 285.512 254.201 286.831 241.292 287.765C236.512 288.11 234.848 294.28 238.795 297L262.259 313.187C264.674 314.851 265.172 318.211 263.355 320.504L235.304 356.035C143.164 322.94 156.844 212.4 170.799 155.558L287.986 63.367C289.376 62.281 291.234 61.987 292.898 62.606L311.45 69.517C315.104 70.877 318.859 67.792 318.239 63.956L316.219 51.605C315.295 45.891 317.538 40.117 322.095 36.534C331.878 28.841 342.494 22.377 353.728 17.221C364.963 12.076 376.796 8.25 389.005 5.855L415.97 0.568001C436.523 -3.463 454.608 14.622 450.579 35.163V35.163Z" fill="#FB405C"/>
<path d="M450.579 35.163L445.312 61.996C440.502 86.515 429.927 109.532 414.45 129.14L335.777 228.77C334.894 229.886 333.585 230.587 332.174 230.688L300.814 233.012C296.004 233.367 294.359 239.609 298.368 242.288L311.308 250.945C313.774 252.589 314.302 255.989 312.475 258.313L293.081 282.873C292.168 284.02 290.798 284.72 289.326 284.791C273.504 285.512 254.201 286.831 241.302 287.765C236.522 288.11 234.847 294.28 238.795 297L262.259 313.187C264.674 314.851 265.172 318.211 263.355 320.514L235.314 356.034C225.013 352.34 216.031 347.671 208.227 342.211L225.368 320.513C227.185 318.209 226.677 314.85 224.262 313.186L200.799 297C196.851 294.28 198.526 288.11 203.306 287.765C216.205 286.831 235.508 285.512 251.33 284.791C252.802 284.72 254.172 284.02 255.085 282.873L274.479 258.313C276.306 255.989 275.778 252.589 273.312 250.945L260.372 242.288C256.363 239.609 258.007 233.367 262.818 233.012L294.177 230.688C295.598 230.587 296.897 229.886 297.78 228.77L376.453 129.14C391.93 109.533 402.505 86.515 407.315 61.996L412.582 35.163C415.15 22.091 408.756 10.014 398.465 3.996L415.972 0.566002C436.523 -3.463 454.608 14.622 450.579 35.163V35.163Z" fill="#FB405C"/>
<path d="M241.171 348.616L198.09 403.175C197.765 403.591 197.43 403.997 197.085 404.393C103.423 365.798 79.5833 280.437 73.7583 231.896L93.2033 216.602C94.7963 215.333 96.9993 215.161 98.7853 216.135L122.381 229.115C125.76 230.972 129.901 228.526 129.901 224.67V190.195C129.901 188.642 130.611 187.171 131.839 186.207L181.101 147.459C167.512 195.543 144.22 316.404 241.171 348.616Z" fill="#FB405C"/>
<path d="M241.171 348.616L198.09 403.175C197.765 403.591 197.43 403.997 197.085 404.393C187.261 400.344 178.198 395.787 169.856 390.804L213.749 335.23C221.594 340.599 230.677 345.125 241.171 348.616Z" fill="#FB405C"/>
<path d="M203.903 395.817L198.088 403.175C189.096 414.562 174.563 420.083 160.274 417.535L57.0983 399.169C54.6053 398.725 52.8203 396.511 52.9173 393.98L57.9453 261.976C58.3923 250.437 63.8823 239.669 72.9553 232.524L81.5003 225.795C84.8383 268.511 103.897 360.276 203.903 395.817V395.817Z" fill="#FB405C"/>
<path d="M203.903 395.817L198.088 403.175C189.096 414.562 174.563 420.083 160.274 417.535L145.02 414.815C150.825 412.278 156.021 408.33 160.091 403.174L175.781 383.303C184.356 387.992 193.713 392.194 203.903 395.817V395.817Z" fill="#FB405C"/>
<path d="M371.795 90.839L170.414 292.22C168.415 286.831 166.771 281.3 165.451 275.657L361.027 80.071C364.001 77.108 368.821 77.108 371.795 80.071C374.768 83.045 374.768 87.865 371.795 90.839V90.839Z" fill="#FCB44D"/>
<path d="M176.787 285.846L117.803 344.83C114.596 340.699 111.612 336.508 108.842 332.266L172.099 269.009C173.307 274.734 174.849 280.376 176.787 285.846V285.846Z" fill="#FB9927"/>
<path d="M123.365 339.269L79.8372 382.797C46.2352 416.399 24.1512 458.892 15.9612 505.698C15.3122 509.392 12.1052 512 8.47122 512C8.03522 512 7.59822 511.959 7.15222 511.888C3.01122 511.157 0.241222 507.22 0.971222 503.079C9.69922 453.168 33.2442 407.864 69.0692 372.039L114.353 326.745C117.123 330.978 120.117 335.159 123.365 339.269Z" fill="#F98824"/>
</svg>
