<svg width="452" height="513" viewBox="0 0 452 513" fill="none" xmlns="http://www.w3.org/2000/svg">
<path d="M440.486 10.7117C431.862 2.08745 419.57 -1.65964 407.603 0.686417L381.033 5.89655C355.928 10.8187 332.026 21.78 311.911 37.5924C305.279 42.8075 302.002 51.2187 303.358 59.5449L304.647 67.4621L290.394 62.15C286.336 60.6369 281.704 61.362 278.301 64.038L243.896 91.1017C240.641 93.6628 240.078 98.3779 242.638 101.634C245.2 104.889 249.916 105.453 253.17 102.892L286.472 76.6963L303.442 83.0205C307.663 84.5925 312.26 83.8255 315.743 80.9654C319.224 78.1064 320.869 73.7443 320.145 69.2982L318.165 57.1339C317.686 54.1948 318.844 51.2247 321.186 49.3837C339.44 35.0313 361.134 25.083 383.921 20.6149L410.491 15.4048C417.652 14.0028 424.719 16.1558 429.88 21.3169C435.039 26.4761 437.193 33.5373 435.79 40.6904L430.599 67.1321C426.107 90.0267 416.101 111.798 401.662 130.09L324.822 227.406L295.018 229.611C289.617 230.011 285.234 233.653 283.854 238.89C282.473 244.128 284.49 249.457 288.992 252.468L299.497 259.494L282.772 280.675C267.459 281.395 249.172 282.636 236.388 283.563C231.024 283.951 226.646 287.554 225.234 292.741C223.82 297.933 225.77 303.263 230.2 306.32L251.128 320.757L234.262 342.116C206.706 331.543 188.31 311.841 179.245 283.271L365.515 97.0009C368.444 94.0718 368.444 89.3227 365.515 86.3946C362.586 83.4655 357.837 83.4655 354.909 86.3946L175.112 266.19C173.205 255.224 172.402 243.218 172.713 230.18C172.812 226.039 169.535 222.602 165.394 222.503C161.24 222.382 157.815 225.681 157.717 229.822C157.289 247.796 158.918 264.14 162.52 278.782L117.157 324.146C96.866 292.602 89.6558 258.103 87.2927 233.376L94.3349 227.836L116.137 239.822C120.051 241.974 124.681 241.901 128.523 239.628C132.366 237.356 134.66 233.334 134.66 228.869V196.115L165.023 172.232C162.994 181.516 161.354 190.74 160.141 199.81C159.593 203.916 162.476 207.69 166.581 208.239C166.918 208.284 167.253 208.306 167.584 208.306C171.284 208.306 174.505 205.567 175.009 201.799C176.958 187.214 180.044 172.198 184.178 157.164L230.505 120.722C233.761 118.161 234.324 113.446 231.763 110.19C229.202 106.934 224.486 106.372 221.232 108.932L124.431 185.078C121.399 187.464 119.66 191.044 119.66 194.902V224.643L97.212 212.303C94.5739 210.854 91.3268 211.12 88.9618 212.981L66.4082 230.724C55.7209 239.14 49.2898 251.76 48.7627 265.351L43.6426 399.775C43.6226 400.299 43.6626 400.811 43.7466 401.311C21.545 431.279 6.63267 465.944 0.113503 503.211C-0.600515 507.291 2.12855 511.177 6.20866 511.891C6.64667 511.968 7.08068 512.005 7.50969 512.005C11.0848 512.005 14.2519 509.439 14.8889 505.796C21.113 470.215 35.4964 437.164 56.9439 408.713L91.8748 414.931C92.3198 415.01 92.7619 415.049 93.1979 415.049C96.764 415.049 99.927 412.495 100.573 408.862C101.299 404.784 98.582 400.889 94.5039 400.164L67.7882 395.407C71.0093 391.745 74.3504 388.17 77.8245 384.696L115.37 347.15C134.163 370.739 158.424 388.73 187.844 400.856C180.649 409.418 169.467 413.511 158.404 411.538L122.992 405.235C118.912 404.51 115.018 407.227 114.293 411.304C113.567 415.382 116.284 419.277 120.363 420.002L155.772 426.305C158.499 426.791 161.229 427.028 163.937 427.028C177.953 427.028 191.357 420.663 200.237 409.419L264.553 327.962C266.685 325.261 267.615 321.759 267.103 318.356C266.591 314.953 264.673 311.881 261.84 309.926L244.582 298.022C256.776 297.169 271.841 296.195 284.592 295.612C288.218 295.446 291.588 293.718 293.835 290.872L312.944 266.672C315.098 263.944 316.024 260.411 315.482 256.978C314.94 253.545 312.972 250.468 310.083 248.535L303.362 244.04L327.024 242.29C330.507 242.032 333.747 240.311 335.911 237.569L413.432 139.392C429.341 119.236 440.367 95.2498 445.315 70.0282L450.505 43.5865C452.853 31.6212 449.106 19.3339 440.486 10.7117V10.7117ZM67.2182 374.084C64.5091 376.793 61.8811 379.563 59.316 382.379L63.7511 265.923C64.0691 257.713 67.5832 250.032 73.4794 244.428C76.3884 265.794 83.0176 293.48 97.79 320.582C100.486 325.528 103.365 330.294 106.421 334.881L67.2182 374.084ZM125.967 336.549L167.564 294.952C178.231 322.644 197.415 342.737 224.586 354.37L197.576 388.578C165.319 376.121 142.323 357.425 125.967 336.549V336.549Z" fill="#FB405C"/>
</svg>
